<svg xmlns="http://www.w3.org/2000/svg" xmlns:xlink="http://www.w3.org/1999/xlink" width="1280" zoomAndPan="magnify" viewBox="0 0 960 540.000001" height="720" preserveAspectRatio="xMidYMid meet" version="1.0"><defs><clipPath id="3ed69941d6"><path d="M 0.886719 0 L 959.113281 0 L 959.113281 539 L 0.886719 539 Z M 0.886719 0 " clip-rule="nonzero"/></clipPath><clipPath id="251f9f5463"><path d="M 0.886719 84 L 523.417969 84 L 523.417969 472 L 0.886719 472 Z M 0.886719 84 " clip-rule="nonzero"/></clipPath><clipPath id="fe1810d1a0"><path d="M 177 0 L 523.417969 0 L 523.417969 102 L 177 102 Z M 177 0 " clip-rule="nonzero"/></clipPath><clipPath id="d03ad6aacb"><path d="M 0.886719 0 L 277 0 L 277 102 L 0.886719 102 Z M 0.886719 0 " clip-rule="nonzero"/></clipPath><clipPath id="0f3927f2f4"><path d="M 733 238 L 959.113281 238 L 959.113281 465 L 733 465 Z M 733 238 " clip-rule="nonzero"/></clipPath></defs><g clip-path="url(#3ed69941d6)"><path fill="#ffffff" d="M 0.886719 0 L 959.113281 0 L 959.113281 539 L 0.886719 539 Z M 0.886719 0 " fill-opacity="1" fill-rule="nonzero"/><path fill="#ffffff" d="M 0.886719 0 L 959.113281 0 L 959.113281 539 L 0.886719 539 Z M 0.886719 0 " fill-opacity="1" fill-rule="nonzero"/></g><g clip-path="url(#251f9f5463)"><path fill="#d9ecff" d="M 514.992188 84.21875 L 9.316406 84.21875 C 4.664062 84.21875 0.890625 87.984375 0.890625 92.640625 L 0.890625 429.515625 C 0.890625 452.730469 19.792969 471.625 43.027344 471.625 L 481.277344 471.625 C 504.511719 471.625 523.417969 452.730469 523.417969 429.515625 L 523.417969 92.640625 C 523.417969 87.984375 519.644531 84.21875 514.992188 84.21875 Z M 514.992188 84.21875 " fill-opacity="1" fill-rule="nonzero"/></g><path fill="#f45687" d="M 93.597656 168.4375 L 430.710938 168.4375 C 431.816406 168.4375 432.917969 168.492188 434.015625 168.597656 C 435.113281 168.707031 436.207031 168.871094 437.289062 169.085938 C 438.371094 169.300781 439.441406 169.566406 440.496094 169.886719 C 441.554688 170.207031 442.59375 170.578125 443.613281 171 C 444.632812 171.421875 445.628906 171.894531 446.601562 172.414062 C 447.578125 172.933594 448.523438 173.5 449.441406 174.113281 C 450.359375 174.726562 451.246094 175.382812 452.097656 176.082031 C 452.953125 176.785156 453.769531 177.523438 454.550781 178.304688 C 455.328125 179.085938 456.070312 179.902344 456.769531 180.753906 C 457.472656 181.605469 458.128906 182.492188 458.742188 183.410156 C 459.355469 184.328125 459.921875 185.269531 460.441406 186.246094 C 460.964844 187.21875 461.433594 188.214844 461.855469 189.234375 C 462.28125 190.253906 462.652344 191.289062 462.972656 192.34375 C 463.292969 193.402344 463.558594 194.46875 463.777344 195.550781 C 463.992188 196.632812 464.152344 197.726562 464.261719 198.824219 C 464.367188 199.921875 464.421875 201.019531 464.421875 202.125 L 464.421875 505.3125 C 464.421875 506.414062 464.367188 507.515625 464.261719 508.613281 C 464.152344 509.710938 463.992188 510.800781 463.777344 511.882812 C 463.558594 512.964844 463.292969 514.035156 462.972656 515.089844 C 462.652344 516.144531 462.28125 517.183594 461.855469 518.203125 C 461.433594 519.222656 460.964844 520.21875 460.441406 521.191406 C 459.921875 522.164062 459.355469 523.109375 458.742188 524.027344 C 458.128906 524.945312 457.472656 525.828125 456.769531 526.683594 C 456.070312 527.535156 455.328125 528.351562 454.550781 529.132812 C 453.769531 529.910156 452.953125 530.652344 452.097656 531.351562 C 451.246094 532.050781 450.359375 532.707031 449.441406 533.320312 C 448.523438 533.933594 447.578125 534.5 446.601562 535.019531 C 445.628906 535.542969 444.632812 536.011719 443.613281 536.433594 C 442.59375 536.855469 441.554688 537.226562 440.496094 537.546875 C 439.441406 537.867188 438.371094 538.136719 437.289062 538.351562 C 436.207031 538.566406 435.113281 538.726562 434.015625 538.835938 C 432.917969 538.945312 431.816406 539 430.710938 539 L 93.597656 539 C 92.492188 539 91.390625 538.945312 90.292969 538.835938 C 89.191406 538.726562 88.101562 538.566406 87.019531 538.351562 C 85.9375 538.136719 84.867188 537.867188 83.808594 537.546875 C 82.753906 537.226562 81.714844 536.855469 80.695312 536.433594 C 79.675781 536.011719 78.679688 535.542969 77.703125 535.019531 C 76.730469 534.5 75.785156 533.933594 74.867188 533.320312 C 73.949219 532.707031 73.0625 532.050781 72.210938 531.351562 C 71.355469 530.652344 70.539062 529.910156 69.757812 529.132812 C 68.976562 528.351562 68.238281 527.535156 67.535156 526.683594 C 66.835938 525.828125 66.179688 524.945312 65.566406 524.027344 C 64.953125 523.109375 64.386719 522.164062 63.863281 521.191406 C 63.34375 520.21875 62.875 519.222656 62.449219 518.203125 C 62.027344 517.183594 61.65625 516.144531 61.335938 515.089844 C 61.015625 514.035156 60.746094 512.964844 60.53125 511.882812 C 60.316406 510.800781 60.15625 509.710938 60.046875 508.613281 C 59.9375 507.515625 59.882812 506.414062 59.882812 505.3125 L 59.882812 202.125 C 59.882812 201.019531 59.9375 199.921875 60.046875 198.824219 C 60.15625 197.726562 60.316406 196.632812 60.53125 195.550781 C 60.746094 194.46875 61.015625 193.402344 61.335938 192.34375 C 61.65625 191.289062 62.027344 190.253906 62.449219 189.234375 C 62.875 188.214844 63.34375 187.21875 63.863281 186.246094 C 64.386719 185.269531 64.953125 184.328125 65.566406 183.410156 C 66.179688 182.492188 66.835938 181.605469 67.535156 180.753906 C 68.238281 179.902344 68.976562 179.085938 69.757812 178.304688 C 70.539062 177.523438 71.355469 176.785156 72.210938 176.082031 C 73.0625 175.382812 73.949219 174.726562 74.867188 174.113281 C 75.785156 173.5 76.730469 172.933594 77.703125 172.414062 C 78.679688 171.894531 79.675781 171.421875 80.695312 171 C 81.714844 170.578125 82.753906 170.207031 83.808594 169.886719 C 84.867188 169.566406 85.9375 169.300781 87.019531 169.085938 C 88.101562 168.871094 89.191406 168.707031 90.292969 168.597656 C 91.390625 168.492188 92.492188 168.4375 93.597656 168.4375 Z M 93.597656 168.4375 " fill-opacity="1" fill-rule="nonzero"/><g clip-path="url(#fe1810d1a0)"><path fill="#45a9f4" d="M 481.277344 0 L 186.304688 0 C 181.648438 0 177.875 3.769531 177.875 8.421875 L 177.875 92.640625 C 177.875 97.292969 181.648438 101.0625 186.304688 101.0625 L 523.417969 101.0625 L 523.417969 42.109375 C 523.417969 18.851562 504.550781 0 481.277344 0 Z M 481.277344 0 " fill-opacity="1" fill-rule="nonzero"/></g><g clip-path="url(#d03ad6aacb)"><path fill="#64c4ff" d="M 276.988281 101.0625 L 0.890625 101.0625 L 0.890625 42.109375 C 0.890625 18.851562 19.753906 0 43.027344 0 L 182.929688 0 C 203.578125 0 222.964844 10.949219 233.582031 28.632812 Z M 276.988281 101.0625 " fill-opacity="1" fill-rule="nonzero"/></g><path fill="#45a9f4" d="M 51.457031 42.109375 C 51.457031 42.664062 51.402344 43.210938 51.292969 43.753906 C 51.1875 44.292969 51.027344 44.820312 50.816406 45.332031 C 50.601562 45.84375 50.34375 46.328125 50.035156 46.789062 C 49.730469 47.246094 49.378906 47.671875 48.988281 48.0625 C 48.597656 48.457031 48.171875 48.804688 47.710938 49.113281 C 47.25 49.417969 46.765625 49.679688 46.253906 49.890625 C 45.742188 50.101562 45.214844 50.261719 44.671875 50.371094 C 44.128906 50.476562 43.582031 50.53125 43.027344 50.53125 C 42.476562 50.53125 41.925781 50.476562 41.382812 50.371094 C 40.839844 50.261719 40.316406 50.101562 39.804688 49.890625 C 39.292969 49.679688 38.804688 49.417969 38.347656 49.113281 C 37.886719 48.804688 37.460938 48.457031 37.070312 48.0625 C 36.679688 47.671875 36.328125 47.246094 36.019531 46.789062 C 35.714844 46.328125 35.453125 45.84375 35.242188 45.332031 C 35.03125 44.820312 34.871094 44.292969 34.761719 43.753906 C 34.65625 43.210938 34.601562 42.664062 34.601562 42.109375 C 34.601562 41.554688 34.65625 41.007812 34.761719 40.464844 C 34.871094 39.925781 35.03125 39.398438 35.242188 38.886719 C 35.453125 38.375 35.714844 37.890625 36.019531 37.429688 C 36.328125 36.96875 36.679688 36.546875 37.070312 36.152344 C 37.460938 35.761719 37.886719 35.414062 38.347656 35.105469 C 38.804688 34.800781 39.292969 34.539062 39.804688 34.328125 C 40.316406 34.117188 40.839844 33.957031 41.382812 33.847656 C 41.925781 33.742188 42.476562 33.6875 43.027344 33.6875 C 43.582031 33.6875 44.128906 33.742188 44.671875 33.847656 C 45.214844 33.957031 45.742188 34.117188 46.253906 34.328125 C 46.765625 34.539062 47.25 34.800781 47.710938 35.105469 C 48.171875 35.414062 48.597656 35.761719 48.988281 36.152344 C 49.378906 36.546875 49.730469 36.96875 50.035156 37.429688 C 50.34375 37.890625 50.601562 38.375 50.816406 38.886719 C 51.027344 39.398438 51.1875 39.925781 51.292969 40.464844 C 51.402344 41.007812 51.457031 41.554688 51.457031 42.109375 Z M 51.457031 42.109375 " fill-opacity="1" fill-rule="nonzero"/><path fill="#45a9f4" d="M 85.167969 42.109375 C 85.167969 42.664062 85.113281 43.210938 85.007812 43.753906 C 84.898438 44.292969 84.738281 44.820312 84.527344 45.332031 C 84.316406 45.84375 84.054688 46.328125 83.746094 46.789062 C 83.441406 47.246094 83.089844 47.671875 82.699219 48.0625 C 82.308594 48.457031 81.882812 48.804688 81.421875 49.113281 C 80.960938 49.417969 80.476562 49.679688 79.964844 49.890625 C 79.453125 50.101562 78.925781 50.261719 78.382812 50.371094 C 77.839844 50.476562 77.292969 50.53125 76.742188 50.53125 C 76.1875 50.53125 75.640625 50.476562 75.097656 50.371094 C 74.554688 50.261719 74.027344 50.101562 73.515625 49.890625 C 73.003906 49.679688 72.519531 49.417969 72.058594 49.113281 C 71.597656 48.804688 71.171875 48.457031 70.78125 48.0625 C 70.390625 47.671875 70.039062 47.246094 69.734375 46.789062 C 69.425781 46.328125 69.164062 45.84375 68.953125 45.332031 C 68.742188 44.820312 68.582031 44.292969 68.472656 43.753906 C 68.367188 43.210938 68.3125 42.664062 68.3125 42.109375 C 68.3125 41.554688 68.367188 41.007812 68.472656 40.464844 C 68.582031 39.925781 68.742188 39.398438 68.953125 38.886719 C 69.164062 38.375 69.425781 37.890625 69.734375 37.429688 C 70.039062 36.96875 70.390625 36.546875 70.78125 36.152344 C 71.171875 35.761719 71.597656 35.414062 72.058594 35.105469 C 72.519531 34.800781 73.003906 34.539062 73.515625 34.328125 C 74.027344 34.117188 74.554688 33.957031 75.097656 33.847656 C 75.640625 33.742188 76.1875 33.6875 76.742188 33.6875 C 77.292969 33.6875 77.839844 33.742188 78.382812 33.847656 C 78.925781 33.957031 79.453125 34.117188 79.964844 34.328125 C 80.476562 34.539062 80.960938 34.800781 81.421875 35.105469 C 81.882812 35.414062 82.308594 35.761719 82.699219 36.152344 C 83.089844 36.546875 83.441406 36.96875 83.746094 37.429688 C 84.054688 37.890625 84.316406 38.375 84.527344 38.886719 C 84.738281 39.398438 84.898438 39.925781 85.007812 40.464844 C 85.113281 41.007812 85.167969 41.554688 85.167969 42.109375 Z M 85.167969 42.109375 " fill-opacity="1" fill-rule="nonzero"/><path fill="#45a9f4" d="M 118.878906 42.109375 C 118.878906 42.664062 118.824219 43.210938 118.71875 43.753906 C 118.609375 44.292969 118.449219 44.820312 118.238281 45.332031 C 118.027344 45.84375 117.765625 46.328125 117.460938 46.789062 C 117.152344 47.246094 116.800781 47.671875 116.410156 48.0625 C 116.019531 48.457031 115.59375 48.804688 115.132812 49.113281 C 114.675781 49.417969 114.1875 49.679688 113.675781 49.890625 C 113.164062 50.101562 112.640625 50.261719 112.097656 50.371094 C 111.554688 50.476562 111.003906 50.53125 110.453125 50.53125 C 109.898438 50.53125 109.351562 50.476562 108.808594 50.371094 C 108.265625 50.261719 107.738281 50.101562 107.226562 49.890625 C 106.714844 49.679688 106.230469 49.417969 105.769531 49.113281 C 105.308594 48.804688 104.882812 48.457031 104.492188 48.0625 C 104.101562 47.671875 103.75 47.246094 103.445312 46.789062 C 103.136719 46.328125 102.878906 45.84375 102.664062 45.332031 C 102.453125 44.820312 102.292969 44.292969 102.1875 43.753906 C 102.078125 43.210938 102.023438 42.664062 102.023438 42.109375 C 102.023438 41.554688 102.078125 41.007812 102.1875 40.464844 C 102.292969 39.925781 102.453125 39.398438 102.664062 38.886719 C 102.878906 38.375 103.136719 37.890625 103.445312 37.429688 C 103.75 36.96875 104.101562 36.546875 104.492188 36.152344 C 104.882812 35.761719 105.308594 35.414062 105.769531 35.105469 C 106.230469 34.800781 106.714844 34.539062 107.226562 34.328125 C 107.738281 34.117188 108.265625 33.957031 108.808594 33.847656 C 109.351562 33.742188 109.898438 33.6875 110.453125 33.6875 C 111.003906 33.6875 111.554688 33.742188 112.097656 33.847656 C 112.640625 33.957031 113.164062 34.117188 113.675781 34.328125 C 114.1875 34.539062 114.675781 34.800781 115.132812 35.105469 C 115.59375 35.414062 116.019531 35.761719 116.410156 36.152344 C 116.800781 36.546875 117.152344 36.96875 117.460938 37.429688 C 117.765625 37.890625 118.027344 38.375 118.238281 38.886719 C 118.449219 39.398438 118.609375 39.925781 118.71875 40.464844 C 118.824219 41.007812 118.878906 41.554688 118.878906 42.109375 Z M 118.878906 42.109375 " fill-opacity="1" fill-rule="nonzero"/><path fill="#ff6c9d" d="M 93.597656 168.4375 C 74.976562 168.4375 59.882812 183.519531 59.882812 202.125 L 59.882812 252.65625 L 194.730469 252.65625 L 194.730469 168.4375 Z M 93.597656 168.4375 " fill-opacity="1" fill-rule="nonzero"/><path fill="#f45687" d="M 144.164062 218.96875 L 110.453125 218.96875 C 105.796875 218.96875 102.023438 215.203125 102.023438 210.546875 C 102.023438 205.890625 105.796875 202.125 110.453125 202.125 L 144.164062 202.125 C 148.816406 202.125 152.589844 205.890625 152.589844 210.546875 C 152.589844 215.203125 148.816406 218.96875 144.164062 218.96875 Z M 144.164062 218.96875 " fill-opacity="1" fill-rule="nonzero"/><path fill="#db4070" d="M 144.164062 311.609375 L 110.453125 311.609375 C 105.796875 311.609375 102.023438 307.84375 102.023438 303.1875 C 102.023438 298.53125 105.796875 294.765625 110.453125 294.765625 L 144.164062 294.765625 C 148.816406 294.765625 152.589844 298.53125 152.589844 303.1875 C 152.589844 307.84375 148.816406 311.609375 144.164062 311.609375 Z M 144.164062 311.609375 " fill-opacity="1" fill-rule="nonzero"/><path fill="#db4070" d="M 144.164062 362.140625 L 110.453125 362.140625 C 105.796875 362.140625 102.023438 358.371094 102.023438 353.71875 C 102.023438 349.0625 105.796875 345.296875 110.453125 345.296875 L 144.164062 345.296875 C 148.816406 345.296875 152.589844 349.0625 152.589844 353.71875 C 152.589844 358.371094 148.816406 362.140625 144.164062 362.140625 Z M 144.164062 362.140625 " fill-opacity="1" fill-rule="nonzero"/><path fill="#db4070" d="M 144.164062 412.671875 L 110.453125 412.671875 C 105.796875 412.671875 102.023438 408.902344 102.023438 404.25 C 102.023438 399.59375 105.796875 395.828125 110.453125 395.828125 L 144.164062 395.828125 C 148.816406 395.828125 152.589844 399.59375 152.589844 404.25 C 152.589844 408.902344 148.816406 412.671875 144.164062 412.671875 Z M 144.164062 412.671875 " fill-opacity="1" fill-rule="nonzero"/><path fill="#db4070" d="M 144.164062 463.203125 L 110.453125 463.203125 C 105.796875 463.203125 102.023438 459.433594 102.023438 454.78125 C 102.023438 450.125 105.796875 446.359375 110.453125 446.359375 L 144.164062 446.359375 C 148.816406 446.359375 152.589844 450.125 152.589844 454.78125 C 152.589844 459.433594 148.816406 463.203125 144.164062 463.203125 Z M 144.164062 463.203125 " fill-opacity="1" fill-rule="nonzero"/><path fill="#4fc6af" d="M 194.730469 252.65625 L 329.578125 252.65625 L 329.578125 539 L 194.730469 539 Z M 194.730469 252.65625 " fill-opacity="1" fill-rule="nonzero"/><path fill="#68ddc1" d="M 194.730469 168.4375 L 329.578125 168.4375 L 329.578125 252.65625 L 194.730469 252.65625 Z M 194.730469 168.4375 " fill-opacity="1" fill-rule="nonzero"/><path fill="#4fc6af" d="M 279.007812 218.96875 L 245.296875 218.96875 C 240.644531 218.96875 236.871094 215.203125 236.871094 210.546875 C 236.871094 205.890625 240.644531 202.125 245.296875 202.125 L 279.007812 202.125 C 283.664062 202.125 287.4375 205.890625 287.4375 210.546875 C 287.4375 215.203125 283.664062 218.96875 279.007812 218.96875 Z M 279.007812 218.96875 " fill-opacity="1" fill-rule="nonzero"/><path fill="#35af9d" d="M 279.007812 311.609375 L 245.296875 311.609375 C 240.644531 311.609375 236.871094 307.84375 236.871094 303.1875 C 236.871094 298.53125 240.644531 294.765625 245.296875 294.765625 L 279.007812 294.765625 C 283.664062 294.765625 287.4375 298.53125 287.4375 303.1875 C 287.4375 307.84375 283.664062 311.609375 279.007812 311.609375 Z M 279.007812 311.609375 " fill-opacity="1" fill-rule="nonzero"/><path fill="#35af9d" d="M 279.007812 362.140625 L 245.296875 362.140625 C 240.644531 362.140625 236.871094 358.371094 236.871094 353.71875 C 236.871094 349.0625 240.644531 345.296875 245.296875 345.296875 L 279.007812 345.296875 C 283.664062 345.296875 287.4375 349.0625 287.4375 353.71875 C 287.4375 358.371094 283.664062 362.140625 279.007812 362.140625 Z M 279.007812 362.140625 " fill-opacity="1" fill-rule="nonzero"/><path fill="#35af9d" d="M 279.007812 412.671875 L 245.296875 412.671875 C 240.644531 412.671875 236.871094 408.902344 236.871094 404.25 C 236.871094 399.59375 240.644531 395.828125 245.296875 395.828125 L 279.007812 395.828125 C 283.664062 395.828125 287.4375 399.59375 287.4375 404.25 C 287.4375 408.902344 283.664062 412.671875 279.007812 412.671875 Z M 279.007812 412.671875 " fill-opacity="1" fill-rule="nonzero"/><path fill="#35af9d" d="M 279.007812 463.203125 L 245.296875 463.203125 C 240.644531 463.203125 236.871094 459.433594 236.871094 454.78125 C 236.871094 450.125 240.644531 446.359375 245.296875 446.359375 L 279.007812 446.359375 C 283.664062 446.359375 287.4375 450.125 287.4375 454.78125 C 287.4375 459.433594 283.664062 463.203125 279.007812 463.203125 Z M 279.007812 463.203125 " fill-opacity="1" fill-rule="nonzero"/><path fill="#ffcd7d" d="M 329.578125 252.65625 L 329.578125 539 L 430.710938 539 C 449.332031 539 464.421875 523.917969 464.421875 505.3125 L 464.421875 252.65625 Z M 329.578125 252.65625 " fill-opacity="1" fill-rule="nonzero"/><path fill="#ffe094" d="M 430.710938 168.4375 L 329.578125 168.4375 L 329.578125 252.65625 L 464.421875 252.65625 L 464.421875 202.125 C 464.421875 183.519531 449.332031 168.4375 430.710938 168.4375 Z M 430.710938 168.4375 " fill-opacity="1" fill-rule="nonzero"/><path fill="#ffcd7d" d="M 413.855469 218.96875 L 380.144531 218.96875 C 375.488281 218.96875 371.714844 215.203125 371.714844 210.546875 C 371.714844 205.890625 375.488281 202.125 380.144531 202.125 L 413.855469 202.125 C 418.511719 202.125 422.285156 205.890625 422.285156 210.546875 C 422.285156 215.203125 418.511719 218.96875 413.855469 218.96875 Z M 413.855469 218.96875 " fill-opacity="1" fill-rule="nonzero"/><path fill="#ffaf5f" d="M 413.855469 311.609375 L 380.144531 311.609375 C 375.488281 311.609375 371.714844 307.84375 371.714844 303.1875 C 371.714844 298.53125 375.488281 294.765625 380.144531 294.765625 L 413.855469 294.765625 C 418.511719 294.765625 422.285156 298.53125 422.285156 303.1875 C 422.285156 307.84375 418.511719 311.609375 413.855469 311.609375 Z M 413.855469 311.609375 " fill-opacity="1" fill-rule="nonzero"/><path fill="#ffaf5f" d="M 413.855469 362.140625 L 380.144531 362.140625 C 375.488281 362.140625 371.714844 358.371094 371.714844 353.71875 C 371.714844 349.0625 375.488281 345.296875 380.144531 345.296875 L 413.855469 345.296875 C 418.511719 345.296875 422.285156 349.0625 422.285156 353.71875 C 422.285156 358.371094 418.511719 362.140625 413.855469 362.140625 Z M 413.855469 362.140625 " fill-opacity="1" fill-rule="nonzero"/><path fill="#ffaf5f" d="M 413.855469 412.671875 L 380.144531 412.671875 C 375.488281 412.671875 371.714844 408.902344 371.714844 404.25 C 371.714844 399.59375 375.488281 395.828125 380.144531 395.828125 L 413.855469 395.828125 C 418.511719 395.828125 422.285156 399.59375 422.285156 404.25 C 422.285156 408.902344 418.511719 412.671875 413.855469 412.671875 Z M 413.855469 412.671875 " fill-opacity="1" fill-rule="nonzero"/><path fill="#ffaf5f" d="M 413.855469 463.203125 L 380.144531 463.203125 C 375.488281 463.203125 371.714844 459.433594 371.714844 454.78125 C 371.714844 450.125 375.488281 446.359375 380.144531 446.359375 L 413.855469 446.359375 C 418.511719 446.359375 422.285156 450.125 422.285156 454.78125 C 422.285156 459.433594 418.511719 463.203125 413.855469 463.203125 Z M 413.855469 463.203125 " fill-opacity="1" fill-rule="nonzero"/><path fill="#edf3f4" d="M 781.726562 273.765625 C 799.824219 273.765625 816.273438 281.160156 828.195312 293.070312 C 840.113281 304.984375 847.515625 321.421875 847.515625 339.503906 L 847.515625 533.132812 C 847.515625 536.371094 844.886719 538.996094 841.648438 538.996094 L 442.898438 538.996094 C 439.65625 538.996094 437.03125 536.371094 437.03125 533.132812 L 437.03125 339.503906 C 437.03125 321.421875 444.429688 304.984375 456.351562 293.070312 C 468.269531 281.160156 484.71875 273.765625 502.816406 273.765625 C 549.019531 273.765625 591.929688 298.332031 638.132812 298.332031 C 684.902344 298.332031 734.960938 273.765625 781.726562 273.765625 Z M 781.726562 273.765625 " fill-opacity="1" fill-rule="evenodd"/><path fill="#dde9eb" d="M 523.550781 539 L 511.816406 539 L 511.816406 415.742188 C 511.816406 412.503906 514.445312 409.878906 517.683594 409.878906 C 520.925781 409.878906 523.550781 412.503906 523.550781 415.742188 Z M 523.550781 539 " fill-opacity="1" fill-rule="evenodd"/><path fill="#dde9eb" d="M 772.722656 539 L 760.988281 539 L 760.988281 415.742188 C 760.988281 412.503906 763.617188 409.878906 766.855469 409.878906 C 770.097656 409.878906 772.722656 412.503906 772.722656 415.742188 Z M 772.722656 539 " fill-opacity="1" fill-rule="evenodd"/><path fill="#65a9d0" d="M 661.902344 345.167969 C 665.117188 344.863281 667.96875 347.222656 668.273438 350.433594 L 685.863281 532.585938 C 686.164062 535.796875 683.804688 538.648438 680.589844 538.953125 C 680.40625 538.96875 680.222656 538.976562 680.039062 538.980469 L 680.039062 539 L 604.519531 539 C 601.28125 539 598.652344 536.375 598.652344 533.136719 C 598.652344 532.777344 598.683594 532.425781 598.746094 532.082031 L 616.289062 350.433594 C 616.589844 347.222656 619.445312 344.863281 622.660156 345.167969 C 661.222656 348.808594 623.339844 348.808594 661.902344 345.167969 Z M 661.902344 345.167969 " fill-opacity="1" fill-rule="evenodd"/><path fill="#fab1a6" d="M 590.054688 305.109375 C 586.8125 305.109375 584.1875 302.484375 584.1875 299.25 L 584.1875 237.886719 C 584.1875 234.648438 586.8125 232.023438 590.054688 232.023438 C 598.730469 232.023438 685.605469 232.046875 694.488281 232.046875 C 697.714844 232.046875 700.332031 234.660156 700.332031 237.886719 L 700.332031 299.25 C 700.332031 302.472656 697.714844 305.089844 694.484375 305.089844 C 664.75 305.089844 619.871094 305.109375 590.054688 305.109375 Z M 590.054688 305.109375 " fill-opacity="1" fill-rule="nonzero"/><path fill="#f9c5b8" d="M 555.75 83.230469 L 555.910156 83.230469 L 728.78125 85.871094 C 732.007812 85.871094 734.625 88.484375 734.625 91.710938 C 734.640625 96.675781 734.65625 128.699219 734.667969 133.941406 C 734.707031 150.175781 734.722656 150.957031 734.722656 152.238281 C 734.722656 205.128906 710.832031 239.132812 680.253906 254.136719 C 668.242188 260.03125 655.242188 262.976562 642.269531 262.976562 C 629.300781 262.976562 616.300781 260.03125 604.289062 254.136719 C 573.707031 239.132812 549.816406 205.128906 549.816406 152.238281 C 549.816406 150.9375 549.835938 150.75 549.867188 131.699219 C 549.878906 126.09375 549.890625 93.871094 549.90625 89.070312 C 549.90625 85.84375 552.523438 83.230469 555.75 83.230469 Z M 555.75 83.230469 " fill-opacity="1" fill-rule="nonzero"/><path fill="#76bedd" d="M 673.921875 302.007812 C 677.101562 302.628906 678.484375 321.964844 677.867188 325.140625 L 672.59375 352.105469 C 672.050781 354.902344 669.59375 356.84375 666.84375 356.839844 L 666.84375 356.84375 L 617.699219 356.84375 C 614.746094 356.84375 612.304688 354.667969 611.894531 351.832031 L 611.257812 301.550781 C 610.902344 299.71875 665.09375 300.285156 673.921875 302.007812 Z M 673.921875 302.007812 " fill-opacity="1" fill-rule="evenodd"/><path fill="#59454d" d="M 685.703125 74.300781 L 685.703125 24.664062 C 685.703125 21.425781 688.332031 18.800781 691.570312 18.800781 L 715.53125 18.800781 C 722.777344 18.800781 729.359375 21.757812 734.125 26.519531 C 738.894531 31.285156 741.851562 37.863281 741.851562 45.101562 L 741.851562 118.683594 C 741.851562 121.921875 739.226562 124.546875 735.984375 124.546875 C 722.152344 124.546875 709.578125 118.894531 700.46875 109.792969 C 691.359375 100.6875 685.703125 88.125 685.703125 74.300781 Z M 685.703125 74.300781 " fill-opacity="1" fill-rule="evenodd"/><path fill="#6e555e" d="M 581.261719 -0.00390625 L 674.367188 -0.00390625 C 680.71875 -0.00390625 686.488281 2.585938 690.664062 6.761719 C 694.84375 10.9375 697.4375 16.703125 697.4375 23.050781 L 697.4375 86 C 697.4375 96.605469 693.101562 106.246094 686.113281 113.230469 C 679.125 120.210938 669.476562 124.546875 658.863281 124.546875 L 565.761719 124.546875 C 559.410156 124.546875 553.640625 121.953125 549.460938 117.78125 C 545.28125 113.605469 542.6875 107.839844 542.6875 101.492188 L 542.6875 38.542969 C 542.6875 27.933594 547.027344 18.296875 554.015625 11.3125 C 561.003906 4.328125 570.648438 -0.00390625 581.261719 -0.00390625 Z M 581.261719 -0.00390625 " fill-opacity="1" fill-rule="evenodd"/><path fill="#dde9eb" d="M 555.933594 275.226562 L 576.609375 254.5625 C 578.632812 252.542969 581.757812 252.304688 584.039062 253.847656 L 645.203125 289.136719 C 648 290.753906 648.957031 294.332031 647.335938 297.128906 C 647.074219 297.578125 646.761719 297.980469 646.410156 298.332031 L 646.417969 298.34375 L 604.898438 339.832031 C 602.609375 342.121094 598.894531 342.121094 596.601562 339.832031 C 596.25 339.480469 595.953125 339.097656 595.710938 338.6875 L 555.335938 282.785156 C 553.640625 280.425781 553.953125 277.230469 555.949219 275.242188 Z M 555.933594 275.226562 " fill-opacity="1" fill-rule="evenodd"/><path fill="#dde9eb" d="M 707.929688 254.5625 L 728.605469 275.226562 L 728.59375 275.242188 C 730.585938 277.230469 730.902344 280.425781 729.203125 282.785156 L 688.832031 338.6875 C 688.585938 339.097656 688.289062 339.480469 687.9375 339.832031 C 685.648438 342.121094 681.933594 342.121094 679.640625 339.832031 L 638.121094 298.34375 L 638.128906 298.332031 C 637.777344 297.980469 637.464844 297.578125 637.207031 297.128906 C 635.585938 294.332031 636.539062 290.753906 639.335938 289.136719 L 700.5 253.847656 C 702.78125 252.304688 705.910156 252.542969 707.929688 254.5625 Z M 707.929688 254.5625 " fill-opacity="1" fill-rule="evenodd"/><g clip-path="url(#0f3927f2f4)"><path fill="#fcd462" d="M 846.484375 238.921875 C 877.667969 238.921875 905.898438 251.550781 926.332031 271.972656 C 946.765625 292.390625 959.40625 320.601562 959.40625 351.761719 C 959.40625 382.921875 946.765625 411.128906 926.332031 431.550781 C 905.898438 451.972656 877.667969 464.601562 846.484375 464.601562 C 815.304688 464.601562 787.074219 451.972656 766.636719 431.550781 C 746.203125 411.128906 733.566406 382.921875 733.566406 351.761719 C 733.566406 320.601562 746.203125 292.390625 766.636719 271.972656 C 787.074219 251.550781 815.304688 238.921875 846.484375 238.921875 Z M 846.484375 238.921875 " fill-opacity="1" fill-rule="nonzero"/></g><path fill="#ffffff" d="M 918.039062 280.257812 C 899.726562 261.957031 874.429688 250.640625 846.484375 250.640625 C 818.539062 250.640625 793.238281 261.957031 774.929688 280.257812 C 756.617188 298.554688 745.289062 323.835938 745.289062 351.761719 C 745.289062 379.6875 756.617188 404.964844 774.929688 423.265625 C 793.238281 441.566406 818.539062 452.882812 846.484375 452.882812 C 874.429688 452.882812 899.726562 441.566406 918.039062 423.265625 C 936.351562 404.964844 947.679688 379.6875 947.679688 351.761719 C 947.679688 323.835938 936.351562 298.554688 918.039062 280.257812 Z M 918.039062 280.257812 " fill-opacity="1" fill-rule="nonzero"/><path fill="#f2c397" d="M 794.132812 296.203125 L 898.832031 296.203125 C 905.007812 296.203125 910.621094 298.726562 914.6875 302.789062 C 918.75 306.847656 921.273438 312.457031 921.273438 318.628906 L 921.273438 384.894531 C 921.273438 391.066406 918.75 396.671875 914.6875 400.734375 C 910.621094 404.796875 905.007812 407.316406 898.832031 407.316406 L 794.132812 407.316406 C 787.953125 407.316406 782.34375 404.796875 778.277344 400.734375 C 774.214844 396.671875 771.691406 391.066406 771.691406 384.894531 L 771.691406 318.628906 C 771.691406 312.457031 774.214844 306.847656 778.277344 302.789062 C 782.34375 298.726562 787.953125 296.203125 794.132812 296.203125 Z M 794.132812 296.203125 " fill-opacity="1" fill-rule="evenodd"/><path fill="#c48d69" d="M 823.171875 296.203125 L 869.796875 296.203125 L 869.796875 347.402344 C 869.796875 350.636719 867.171875 353.261719 863.933594 353.261719 L 829.035156 353.261719 C 825.796875 353.261719 823.171875 350.636719 823.171875 347.402344 Z M 823.171875 296.203125 " fill-opacity="1" fill-rule="evenodd"/></svg>